<?xml version="1.0" encoding="utf-8"?>
<!-- Generator: Adobe Illustrator 22.1.0, SVG Export Plug-In . SVG Version: 6.00 Build 0)  -->
<svg version="1.1" id="Layer_1" xmlns="http://www.w3.org/2000/svg" xmlns:xlink="http://www.w3.org/1999/xlink" x="0px" y="0px"
	 viewBox="0 0 256 256" style="enable-background:new 0 0 256 256;" xml:space="preserve">
<style type="text/css">
	.st0{fill:#EAA97D;}
	.st1{fill:#3762CC;}
	.st2{fill:#E0EBFC;}
	.st3{fill:#A4C9FF;}
	.st4{fill:#F9CFCF;}
	.st5{fill:#4671C6;}
	.st6{fill:#6BDDDD;}
	.st7{fill:#F9A7A7;}
	.st8{fill:#FFEA92;}
</style>
<g>
	<g>
		<path class="st2" d="M209.046,242H38.695c-4.394,0-7.956-3.562-7.956-7.956V21.956c0-4.394,3.562-7.956,7.956-7.956h170.35
			c4.394,0,7.956,3.562,7.956,7.956v212.087C217.002,238.438,213.44,242,209.046,242z"/>
	</g>
	<g>
		<path class="st3" d="M200.547,73.321H66.283c-2.209,0-4-1.791-4-4s1.791-4,4-4h134.265c2.209,0,4,1.791,4,4
			S202.756,73.321,200.547,73.321z"/>
	</g>
	<g>
		<path class="st3" d="M200.547,103.158H66.283c-2.209,0-4-1.791-4-4s1.791-4,4-4h134.265c2.209,0,4,1.791,4,4
			S202.756,103.158,200.547,103.158z"/>
	</g>
	<g>
		<path class="st3" d="M200.547,132.995H66.283c-2.209,0-4-1.791-4-4s1.791-4,4-4h134.265c2.209,0,4,1.791,4,4
			S202.756,132.995,200.547,132.995z"/>
	</g>
	<g>
		<path class="st3" d="M200.547,162.831H66.283c-2.209,0-4-1.791-4-4s1.791-4,4-4h134.265c2.209,0,4,1.791,4,4
			S202.756,162.831,200.547,162.831z"/>
	</g>
	<g>
		<path class="st3" d="M200.547,192.668H66.283c-2.209,0-4-1.791-4-4s1.791-4,4-4h134.265c2.209,0,4,1.791,4,4
			S202.756,192.668,200.547,192.668z"/>
	</g>
	<g>
		<path class="st3" d="M200.547,222.504H66.283c-2.209,0-4-1.791-4-4s1.791-4,4-4h134.265c2.209,0,4,1.791,4,4
			S202.756,222.504,200.547,222.504z"/>
	</g>
	<g>
		<path class="st3" d="M200.547,41.496H66.283c-2.209,0-4-1.791-4-4s1.791-4,4-4h134.265c2.209,0,4,1.791,4,4
			S202.756,41.496,200.547,41.496z"/>
	</g>
	<g>
		<path class="st1" d="M209.046,244H38.695c-5.49,0-9.957-4.466-9.957-9.957V21.957c0-5.49,4.466-9.957,9.957-9.957h170.351
			c5.49,0,9.956,4.466,9.956,9.957v212.087C219.002,239.534,214.536,244,209.046,244z M38.695,16c-3.285,0-5.957,2.672-5.957,5.957
			v212.087c0,3.285,2.672,5.957,5.957,5.957h170.351c3.284,0,5.956-2.672,5.956-5.957V21.957c0-3.285-2.672-5.957-5.956-5.957
			H38.695z"/>
	</g>
	<g>
		<path class="st6" d="M43.674,136.278h-25.87c-4.572,0-8.278-3.706-8.278-8.278v0c0-4.572,3.706-8.278,8.278-8.278h25.87
			c4.572,0,8.278,3.706,8.278,8.278v0C51.952,132.572,48.246,136.278,43.674,136.278z"/>
	</g>
	<g>
		<path class="st6" d="M43.674,177.67h-25.87c-4.572,0-8.278-3.706-8.278-8.278v0c0-4.572,3.706-8.278,8.278-8.278h25.87
			c4.572,0,8.278,3.706,8.278,8.278v0C51.952,173.964,48.246,177.67,43.674,177.67z"/>
	</g>
	<g>
		<path class="st6" d="M43.674,94.887h-25.87c-4.572,0-8.278-3.706-8.278-8.278v0c0-4.572,3.706-8.278,8.278-8.278h25.87
			c4.572,0,8.278,3.706,8.278,8.278v0C51.952,91.18,48.246,94.887,43.674,94.887z"/>
	</g>
	<g>
		<path class="st6" d="M43.674,53.495h-25.87c-4.572,0-8.278-3.706-8.278-8.278v0c0-4.572,3.706-8.278,8.278-8.278h25.87
			c4.572,0,8.278,3.706,8.278,8.278v0C51.952,49.788,48.246,53.495,43.674,53.495z"/>
	</g>
	<g>
		<path class="st6" d="M43.674,219.062h-25.87c-4.572,0-8.278-3.706-8.278-8.278v0c0-4.572,3.706-8.278,8.278-8.278h25.87
			c4.572,0,8.278,3.706,8.278,8.278v0C51.952,215.356,48.246,219.062,43.674,219.062z"/>
	</g>
	<g>
		<path class="st1" d="M43.674,138.278h-25.87c-5.667,0-10.278-4.611-10.278-10.278s4.611-10.278,10.278-10.278h25.87
			c5.667,0,10.278,4.611,10.278,10.278S49.341,138.278,43.674,138.278z M17.804,121.722c-3.462,0-6.278,2.816-6.278,6.278
			s2.816,6.278,6.278,6.278h25.87c3.462,0,6.278-2.816,6.278-6.278s-2.816-6.278-6.278-6.278H17.804z"/>
	</g>
	<g>
		<path class="st1" d="M43.674,179.67h-25.87c-5.667,0-10.278-4.611-10.278-10.278c0-5.668,4.611-10.279,10.278-10.279h25.87
			c5.667,0,10.278,4.611,10.278,10.278C53.952,175.06,49.341,179.67,43.674,179.67z M17.804,163.113
			c-3.462,0-6.278,2.816-6.278,6.278s2.816,6.279,6.278,6.279h25.87c3.462,0,6.278-2.816,6.278-6.278s-2.816-6.279-6.278-6.279
			H17.804z"/>
	</g>
	<g>
		<path class="st1" d="M43.674,96.887h-25.87c-5.667,0-10.278-4.611-10.278-10.278c0-5.668,4.611-10.279,10.278-10.279h25.87
			c5.667,0,10.278,4.611,10.278,10.278C53.952,92.276,49.341,96.887,43.674,96.887z M17.804,80.33c-3.462,0-6.278,2.816-6.278,6.278
			s2.816,6.279,6.278,6.279h25.87c3.462,0,6.278-2.816,6.278-6.278s-2.816-6.279-6.278-6.279H17.804z"/>
	</g>
	<g>
		<path class="st1" d="M43.674,55.495h-25.87c-5.667,0-10.278-4.611-10.278-10.278s4.611-10.278,10.278-10.278h25.87
			c5.667,0,10.278,4.611,10.278,10.278S49.341,55.495,43.674,55.495z M17.804,38.938c-3.462,0-6.278,2.816-6.278,6.278
			s2.816,6.278,6.278,6.278h25.87c3.462,0,6.278-2.816,6.278-6.278s-2.816-6.278-6.278-6.278H17.804z"/>
	</g>
	<g>
		<path class="st1" d="M43.674,221.062h-25.87c-5.667,0-10.278-4.611-10.278-10.278s4.611-10.278,10.278-10.278h25.87
			c5.667,0,10.278,4.611,10.278,10.278S49.341,221.062,43.674,221.062z M17.804,204.505c-3.462,0-6.278,2.816-6.278,6.278
			s2.816,6.278,6.278,6.278h25.87c3.462,0,6.278-2.816,6.278-6.278s-2.816-6.278-6.278-6.278H17.804z"/>
	</g>
	<g>
		<path class="st6" d="M236.971,54.039l8.35,8.35c1.537,1.537,1.537,4.03,0,5.567l-7.979,7.979l-13.917-13.917l7.979-7.979
			C232.941,52.501,235.434,52.501,236.971,54.039z"/>
	</g>
	<g>
		<path class="st2" d="M118.427,165.346l15.587,15.587l-19.197,5.56c-1.191,0.345-2.296-0.759-1.95-1.95L118.427,165.346z"/>
	</g>
	<g>
		<path class="st6" d="M239.291,77.884l4.086,4.086c2.449,2.449,2.449,6.419,0,8.868l-47.415,47.415
			c-1.403,1.403-3.678,1.403-5.081,0l-0.003-0.003c-1.38-1.38-1.406-3.609-0.059-5.021l40.734-42.687l-2.461-2.461L239.291,77.884z"
			/>
	</g>
	<g>
		
			<rect x="115.011" y="135.056" transform="matrix(0.7071 -0.7071 0.7071 0.7071 -58.3976 151.172)" class="st6" width="76.541" height="22.044"/>
	</g>
	<g>
		<path class="st1" d="M237.342,77.935c-0.512,0-1.023-0.195-1.414-0.586l-13.917-13.917c-0.781-0.781-0.781-2.047,0-2.828
			l7.979-7.979c2.314-2.314,6.08-2.314,8.395,0l8.351,8.351c2.314,2.314,2.314,6.08,0,8.395l-7.979,7.979
			C238.365,77.74,237.854,77.935,237.342,77.935z M226.253,62.018l11.089,11.088l6.565-6.564c0.755-0.755,0.755-1.984,0-2.739
			l-8.351-8.351c-0.756-0.755-1.982-0.755-2.738,0L226.253,62.018z"/>
	</g>
	<g>
		<path class="st1" d="M114.379,188.556c-0.935,0-1.849-0.367-2.528-1.047c-0.921-0.921-1.268-2.271-0.905-3.522l5.56-19.197
			c0.197-0.68,0.738-1.205,1.423-1.381c0.683-0.178,1.412,0.022,1.912,0.523l15.588,15.587c0.5,0.5,0.699,1.227,0.522,1.912
			c-0.176,0.685-0.7,1.226-1.38,1.423l-19.198,5.561C115.046,188.509,114.711,188.556,114.379,188.556z M119.406,169.153
			l-4.404,15.205l15.205-4.404L119.406,169.153z"/>
	</g>
	<g>
		<path class="st1" d="M193.421,141.303c-1.432,0-2.863-0.545-3.954-1.635c-2.134-2.134-2.175-5.64-0.094-7.819l39.384-41.274
			l-1.078-1.079c-0.781-0.781-0.781-2.047,0-2.828l10.198-10.198c0.375-0.375,0.884-0.586,1.414-0.586l0,0
			c0.53,0,1.039,0.211,1.414,0.586l4.086,4.086c1.563,1.562,2.423,3.639,2.423,5.848c0,2.209-0.86,4.286-2.423,5.848l-47.415,47.415
			C196.286,140.758,194.854,141.303,193.421,141.303z M231.921,88.082l1.046,1.046c0.769,0.769,0.783,2.009,0.033,2.795
			l-40.733,42.687c-0.593,0.621-0.581,1.619,0.025,2.226c0.624,0.623,1.634,0.625,2.256,0.002l47.415-47.415
			c0.807-0.807,1.251-1.879,1.251-3.02c0-1.141-0.444-2.213-1.251-3.02l-2.672-2.672L231.921,88.082z"/>
	</g>
	<g>
		<path class="st1" d="M134.015,182.933c-0.512,0-1.023-0.195-1.414-0.586l-15.588-15.587c-0.375-0.375-0.586-0.884-0.586-1.414
			s0.211-1.039,0.586-1.414l54.123-54.123c0.75-0.75,2.078-0.75,2.828,0l15.587,15.587c0.781,0.781,0.781,2.047,0,2.828
			l-54.122,54.123C135.038,182.738,134.526,182.933,134.015,182.933z M121.255,165.346l12.759,12.759l51.294-51.294l-12.759-12.759
			L121.255,165.346z"/>
	</g>
	<g>
		<path class="st5" d="M166.55,117.223l15.587,15.587c0.615,0.615,1.612,0.615,2.227,0l54.927-54.927L222.59,61.183
			c-0.615-0.615-1.612-0.615-2.227,0l-53.814,53.814C165.935,115.611,165.935,116.608,166.55,117.223z"/>
	</g>
	<g>
		<path class="st1" d="M183.25,135.271c-0.954,0-1.852-0.372-2.527-1.046l-15.587-15.588c-0.676-0.675-1.047-1.573-1.047-2.527
			c0-0.955,0.372-1.853,1.047-2.528l53.813-53.813c1.347-1.349,3.702-1.351,5.055,0l16.701,16.702
			c0.375,0.375,0.586,0.884,0.586,1.414s-0.211,1.039-0.586,1.414l-54.928,54.927C185.104,134.899,184.205,135.271,183.25,135.271z
			 M183.551,131.396h0.01H183.551z M168.265,116.11l14.985,14.985l53.213-53.211l-14.986-14.986L168.265,116.11z"/>
	</g>
</g>
</svg>
